<svg id="Layer_1" data-name="Layer 1" xmlns="http://www.w3.org/2000/svg" xmlns:xlink="http://www.w3.org/1999/xlink" viewBox="0 0 30 13.76"><defs><mask id="mask" x="0" y="0" width="30" height="13.76" maskUnits="userSpaceOnUse"><g transform="translate(-1 -9.12)"><g id="mask-2"><polygon id="path-1" points="1 22.84 31 22.84 31 9.12 1 9.12 1 22.84" fill="#fff"/></g></g></mask></defs><title>arrow</title><g mask="url(#mask)"><path id="Fill-1" d="M24.14,9.12a.65.65,0,0,0-.59.38.63.63,0,0,0,.13.69l5,5.19h-27a.61.61,0,0,0-.54.31.6.6,0,0,0,0,.63.63.63,0,0,0,.54.31h27l-5,5.19a.63.63,0,1,0,.9.87L31,16,24.58,9.32A.65.65,0,0,0,24.14,9.12Z" transform="translate(-1 -9.12)"/></g></svg>