<svg xmlns="http://www.w3.org/2000/svg" xmlns:xlink="http://www.w3.org/1999/xlink" viewBox="0 0 30.51 30"><defs><mask id="mask" x="28.47" y="7.12" width="2.03" height="2.03" maskUnits="userSpaceOnUse"><g transform="translate(-0.75 -1)"><g id="mask-2"><polygon id="path-1" points="31.25 8.12 31.25 10.15 29.22 10.15 29.22 8.12 31.25 8.12" fill="#fff"/></g></g></mask></defs><title>connection</title><g mask="url(#mask)"><path id="Fill-1" d="M31.25,9.14a1,1,0,0,1-2,0,1,1,0,1,1,2,0" transform="translate(-0.75 -1)"/></g><path id="Fill-4" d="M29.22,16.25a1,1,0,1,1-2,0,1,1,0,0,1,2,0" transform="translate(-0.75 -1)"/><path id="Fill-6" d="M29.16,2a1,1,0,0,1-2,0,1,1,0,1,1,2,0" transform="translate(-0.75 -1)"/><path id="Fill-8" d="M2.78,9.14a1,1,0,0,1-2,0,1,1,0,1,1,2,0" transform="translate(-0.75 -1)"/><path id="Fill-10" d="M4.81,16.25a1,1,0,1,1-2,0,1,1,0,0,1,2,0" transform="translate(-0.75 -1)"/><path id="Fill-12" d="M4.76,2a1,1,0,0,1-2,0,1,1,0,1,1,2,0" transform="translate(-0.75 -1)"/><path id="Fill-14" d="M27.13,9.14a1,1,0,0,1-2,0,1,1,0,1,1,2,0" transform="translate(-0.75 -1)"/><path id="Fill-16" d="M26.11,4.05a1,1,0,1,1-2,0,1,1,0,1,1,2,0" transform="translate(-0.75 -1)"/><path id="Fill-18" d="M17,30a1,1,0,0,1-2,0,1,1,0,0,1,2,0" transform="translate(-0.75 -1)"/><path id="Fill-20" d="M17,25.91a1,1,0,1,1-2,0,1,1,0,0,1,2,0" transform="translate(-0.75 -1)"/><path id="Fill-22" d="M17,21.85a1,1,0,0,1-2,0,1,1,0,1,1,2,0" transform="translate(-0.75 -1)"/><path id="Fill-24" d="M17,17.78a1,1,0,0,1-2,0,1,1,0,0,1,2,0" transform="translate(-0.75 -1)"/><path id="Fill-26" d="M26.11,14.22a1,1,0,1,1-2,0,1,1,0,1,1,2,0" transform="translate(-0.75 -1)"/><path id="Fill-28" d="M6.79,9.14a1,1,0,0,1-2,0,1,1,0,1,1,2,0" transform="translate(-0.75 -1)"/><path id="Fill-30" d="M7.81,4.05a1,1,0,1,1-2,0,1,1,0,0,1,2,0" transform="translate(-0.75 -1)"/><path id="Fill-32" d="M7.81,14.22a1,1,0,0,1-2,0,1,1,0,0,1,2,0" transform="translate(-0.75 -1)"/><path d="M16,13.84a5.72,5.72,0,1,1,5.72-5.72A5.73,5.73,0,0,1,16,13.84Zm0-9.92a4.2,4.2,0,1,0,4.2,4.2A4.21,4.21,0,0,0,16,3.92Z" transform="translate(-0.75 -1)"/></svg>
