<?xml version="1.0" encoding="UTF-8"?>
<svg width="24px" height="24px" viewBox="0 0 24 24" version="1.1" xmlns="http://www.w3.org/2000/svg" xmlns:xlink="http://www.w3.org/1999/xlink">
    <!-- Generator: Sketch 52.1 (67048) - http://www.bohemiancoding.com/sketch -->
    <title>saturation-icon</title>
    <desc>Created with Sketch.</desc>
    <g id="Page-1" stroke="none" stroke-width="1" fill="none" fill-rule="evenodd">
        <g id="saturation-icon" fill="#FFFFFF">
            <path d="M12.0005004,3.37368256 C13.2577196,4.79845893 17.3925979,9.81220157 17.9136466,14.5178552 C16.5180576,15.5426565 15.3429954,15.8237201 14.3722449,15.7004845 C12.3021032,15.4377981 11.5994442,13.4844059 9.53686959,13.2379347 C8.34775425,13.0952409 7.18674529,13.5838592 6.10681236,14.3816475 C6.69055989,9.72031538 10.7573343,4.78548676 12.0005004,3.37368256 M19.2867967,14.5977186 C18.7480443,8.36114811 12.6376373,1.87452379 12.3784906,1.60173776 L12,1.20506142 L11.6215094,1.60173776 C11.3623627,1.87566039 5.24740931,8.36683115 4.71433995,14.5897623 C4.6802417,14.8727778 4.65864614,15.1603397 4.65864614,15.4535847 C4.65864614,19.502184 7.95140077,22.7949386 12,22.7949386 C16.0485992,22.7949386 19.3413539,19.502184 19.3413539,15.4535847 C19.3413539,15.1637496 19.3197583,14.8784609 19.2867967,14.5977186" id="Fill-1"></path>
        </g>
    </g>
</svg>